<svg width="50" height="50" viewBox="0 0 50 50" fill="none" xmlns="http://www.w3.org/2000/svg">
<rect width="50" height="50" rx="25" fill="#E0FFB8"/>
<g clip-path="url(#clip0_2_10)">
<path d="M31.6667 16.6667H18.3333C17.4128 16.6667 16.6667 17.4129 16.6667 18.3333V21.6667C16.6667 22.5871 17.4128 23.3333 18.3333 23.3333H31.6667C32.5871 23.3333 33.3333 22.5871 33.3333 21.6667V18.3333C33.3333 17.4129 32.5871 16.6667 31.6667 16.6667Z" stroke="#4C7E0D" stroke-width="2" stroke-linecap="round" stroke-linejoin="round"/>
<path d="M31.6667 26.6667H18.3333C17.4128 26.6667 16.6667 27.4128 16.6667 28.3333V31.6667C16.6667 32.5871 17.4128 33.3333 18.3333 33.3333H31.6667C32.5871 33.3333 33.3333 32.5871 33.3333 31.6667V28.3333C33.3333 27.4128 32.5871 26.6667 31.6667 26.6667Z" stroke="#4C7E0D" stroke-width="2" stroke-linecap="round" stroke-linejoin="round"/>
<path d="M20 20H20.0083" stroke="#4C7E0D" stroke-width="2" stroke-linecap="round" stroke-linejoin="round"/>
<path d="M20 30H20.0083" stroke="#4C7E0D" stroke-width="2" stroke-linecap="round" stroke-linejoin="round"/>
</g>
<defs>
<clipPath id="clip0_2_10">
<rect width="20" height="20" fill="white" transform="translate(15 15)"/>
</clipPath>
</defs>
</svg>
