<svg width="50" height="50" viewBox="0 0 50 50" fill="none" xmlns="http://www.w3.org/2000/svg">
<rect width="50" height="50" rx="25" fill="#FFDAB8"/>
<g clip-path="url(#clip0_2_171)">
<path d="M25 28.3334C26.8409 28.3334 28.3333 26.841 28.3333 25C28.3333 23.1591 26.8409 21.6667 25 21.6667C23.159 21.6667 21.6667 23.1591 21.6667 25C21.6667 26.841 23.159 28.3334 25 28.3334Z" stroke="#060619" stroke-width="2" stroke-linecap="round" stroke-linejoin="round"/>
<path d="M28.3333 21.6667V25.8333C28.3333 26.4964 28.5967 27.1323 29.0656 27.6011C29.5344 28.0699 30.1703 28.3333 30.8333 28.3333C31.4964 28.3333 32.1323 28.0699 32.6011 27.6011C33.0699 27.1323 33.3333 26.4964 33.3333 25.8333V25C33.3332 23.1192 32.6969 21.2937 31.5277 19.8204C30.3586 18.3471 28.7255 17.3127 26.8939 16.8852C25.0623 16.4578 23.1399 16.6625 21.4395 17.4661C19.739 18.2697 18.3603 19.625 17.5277 21.3114C16.6951 22.9979 16.4575 24.9164 16.8535 26.7551C17.2495 28.5937 18.2558 30.2444 19.7089 31.4385C21.1619 32.6327 22.9762 33.3003 24.8567 33.3326C26.7373 33.365 28.5734 32.7602 30.0667 31.6167" stroke="#060619" stroke-width="2" stroke-linecap="round" stroke-linejoin="round"/>
</g>
<defs>
<clipPath id="clip0_2_171">
<rect width="20" height="20" fill="white" transform="translate(15 15)"/>
</clipPath>
</defs>
</svg>
