<svg width="50" height="50" viewBox="0 0 50 50" fill="none" xmlns="http://www.w3.org/2000/svg">
<rect width="50" height="50" rx="25" fill="#B9FFB8"/>
<g clip-path="url(#clip0_2_222)">
<path d="M21.6667 33.3334C22.1269 33.3334 22.5 32.9603 22.5 32.5C22.5 32.0398 22.1269 31.6667 21.6667 31.6667C21.2064 31.6667 20.8333 32.0398 20.8333 32.5C20.8333 32.9603 21.2064 33.3334 21.6667 33.3334Z" stroke="#060619" stroke-width="2" stroke-linecap="round" stroke-linejoin="round"/>
<path d="M30.8333 33.3334C31.2936 33.3334 31.6667 32.9603 31.6667 32.5C31.6667 32.0398 31.2936 31.6667 30.8333 31.6667C30.3731 31.6667 30 32.0398 30 32.5C30 32.9603 30.3731 33.3334 30.8333 33.3334Z" stroke="#060619" stroke-width="2" stroke-linecap="round" stroke-linejoin="round"/>
<path d="M16.7083 16.7083H18.375L20.5917 27.0583C20.673 27.4374 20.8839 27.7762 21.1881 28.0165C21.4923 28.2568 21.8708 28.3836 22.2583 28.375H30.4083C30.7876 28.3744 31.1554 28.2444 31.4509 28.0065C31.7463 27.7686 31.9518 27.4371 32.0333 27.0666L33.4083 20.875H19.2667" stroke="#060619" stroke-width="2" stroke-linecap="round" stroke-linejoin="round"/>
</g>
<defs>
<clipPath id="clip0_2_222">
<rect width="20" height="20" fill="white" transform="translate(15 15)"/>
</clipPath>
</defs>
</svg>
