<svg width="50" height="50" viewBox="0 0 50 50" fill="none" xmlns="http://www.w3.org/2000/svg">
<rect width="50" height="50" rx="25" fill="#DBB8FF"/>
<g clip-path="url(#clip0_2_272)">
<path d="M19.1667 23.3334H18.3333C17.8913 23.3334 17.4674 23.1578 17.1548 22.8452C16.8423 22.5326 16.6667 22.1087 16.6667 21.6667V18.3334C16.6667 17.8913 16.8423 17.4674 17.1548 17.1548C17.4674 16.8423 17.8913 16.6667 18.3333 16.6667H31.6667C32.1087 16.6667 32.5326 16.8423 32.8452 17.1548C33.1577 17.4674 33.3333 17.8913 33.3333 18.3334V21.6667C33.3333 22.1087 33.1577 22.5326 32.8452 22.8452C32.5326 23.1578 32.1087 23.3334 31.6667 23.3334H30.8333" stroke="#060619" stroke-width="2" stroke-linecap="round" stroke-linejoin="round"/>
<path d="M19.1667 26.6667H18.3333C17.8913 26.6667 17.4674 26.8423 17.1548 27.1548C16.8423 27.4674 16.6667 27.8913 16.6667 28.3334V31.6667C16.6667 32.1087 16.8423 32.5326 17.1548 32.8452C17.4674 33.1578 17.8913 33.3334 18.3333 33.3334H31.6667C32.1087 33.3334 32.5326 33.1578 32.8452 32.8452C33.1577 32.5326 33.3333 32.1087 33.3333 31.6667V28.3334C33.3333 27.8913 33.1577 27.4674 32.8452 27.1548C32.5326 26.8423 32.1087 26.6667 31.6667 26.6667H30.8333" stroke="#060619" stroke-width="2" stroke-linecap="round" stroke-linejoin="round"/>
<path d="M20 20H20.0083" stroke="#060619" stroke-width="2" stroke-linecap="round" stroke-linejoin="round"/>
<path d="M20 30H20.0083" stroke="#060619" stroke-width="2" stroke-linecap="round" stroke-linejoin="round"/>
<path d="M25 27.5C26.3807 27.5 27.5 26.3807 27.5 25C27.5 23.6193 26.3807 22.5 25 22.5C23.6193 22.5 22.5 23.6193 22.5 25C22.5 26.3807 23.6193 27.5 25 27.5Z" stroke="#060619" stroke-width="2" stroke-linecap="round" stroke-linejoin="round"/>
<path d="M25 21.6667V22.5" stroke="#060619" stroke-width="2" stroke-linecap="round" stroke-linejoin="round"/>
<path d="M25 27.5V28.3333" stroke="#060619" stroke-width="2" stroke-linecap="round" stroke-linejoin="round"/>
<path d="M28.3333 25H27.5" stroke="#060619" stroke-width="2" stroke-linecap="round" stroke-linejoin="round"/>
<path d="M22.5 25H21.6667" stroke="#060619" stroke-width="2" stroke-linecap="round" stroke-linejoin="round"/>
<path d="M27.5 22.5L26.7667 23.2333" stroke="#060619" stroke-width="2" stroke-linecap="round" stroke-linejoin="round"/>
<path d="M23.2333 26.7667L22.5 27.5" stroke="#060619" stroke-width="2" stroke-linecap="round" stroke-linejoin="round"/>
<path d="M27.5 27.5L26.7667 26.7667" stroke="#060619" stroke-width="2" stroke-linecap="round" stroke-linejoin="round"/>
<path d="M23.2333 23.2333L22.5 22.5" stroke="#060619" stroke-width="2" stroke-linecap="round" stroke-linejoin="round"/>
</g>
<defs>
<clipPath id="clip0_2_272">
<rect width="20" height="20" fill="white" transform="translate(15 15)"/>
</clipPath>
</defs>
</svg>
